<mxfile host="app.diagrams.net" modified="2021-11-05T02:14:55.795Z" agent="5.0 (Windows NT 10.0; Win64; x64) AppleWebKit/537.36 (KHTML, like Gecko) Chrome/95.0.4638.69 Safari/537.36" etag="vVkoW28XHcbhBZdhBkIC" version="15.6.6" type="github">
  <diagram id="h3SapycclIKRxIscYb84" name="Page-1">
    <mxGraphModel dx="1695" dy="1619" grid="1" gridSize="10" guides="1" tooltips="1" connect="1" arrows="1" fold="1" page="1" pageScale="1" pageWidth="827" pageHeight="1169" math="0" shadow="0">
      <root>
        <mxCell id="0" />
        <mxCell id="1" parent="0" />
        <mxCell id="EVfGeKDwFkoimEBB4Esg-3" style="edgeStyle=orthogonalEdgeStyle;rounded=0;orthogonalLoop=1;jettySize=auto;html=1;fontColor=default;strokeColor=default;labelBackgroundColor=default;" edge="1" parent="1" source="EVfGeKDwFkoimEBB4Esg-1" target="EVfGeKDwFkoimEBB4Esg-2">
          <mxGeometry relative="1" as="geometry" />
        </mxCell>
        <mxCell id="EVfGeKDwFkoimEBB4Esg-5" style="edgeStyle=orthogonalEdgeStyle;rounded=0;orthogonalLoop=1;jettySize=auto;html=1;entryX=0.5;entryY=0;entryDx=0;entryDy=0;fontColor=default;strokeColor=default;labelBackgroundColor=default;" edge="1" parent="1" source="EVfGeKDwFkoimEBB4Esg-1" target="EVfGeKDwFkoimEBB4Esg-4">
          <mxGeometry relative="1" as="geometry" />
        </mxCell>
        <mxCell id="EVfGeKDwFkoimEBB4Esg-1" value="EMOCIONES" style="rounded=0;whiteSpace=wrap;html=1;fillColor=default;strokeColor=default;fontColor=default;labelBackgroundColor=default;" vertex="1" parent="1">
          <mxGeometry x="425" y="-70" width="80" height="40" as="geometry" />
        </mxCell>
        <mxCell id="EVfGeKDwFkoimEBB4Esg-40" style="edgeStyle=orthogonalEdgeStyle;rounded=0;orthogonalLoop=1;jettySize=auto;html=1;labelBackgroundColor=default;fontColor=default;strokeColor=default;" edge="1" parent="1" source="EVfGeKDwFkoimEBB4Esg-2" target="EVfGeKDwFkoimEBB4Esg-8">
          <mxGeometry relative="1" as="geometry">
            <Array as="points">
              <mxPoint x="395" y="110" />
              <mxPoint x="535" y="110" />
            </Array>
          </mxGeometry>
        </mxCell>
        <mxCell id="EVfGeKDwFkoimEBB4Esg-2" value="&lt;span style=&quot;font-size: 12.0pt ; line-height: 115% ; font-family: &amp;quot;calibri&amp;quot; , &amp;quot;sans-serif&amp;quot;&quot;&gt;Impulso&lt;br&gt;que induce a la acción.&lt;/span&gt;" style="rounded=1;whiteSpace=wrap;html=1;fontColor=default;strokeColor=default;fillColor=default;labelBackgroundColor=default;" vertex="1" parent="1">
          <mxGeometry x="335" y="20" width="120" height="60" as="geometry" />
        </mxCell>
        <mxCell id="EVfGeKDwFkoimEBB4Esg-42" style="edgeStyle=orthogonalEdgeStyle;rounded=0;orthogonalLoop=1;jettySize=auto;html=1;entryX=0.5;entryY=0;entryDx=0;entryDy=0;labelBackgroundColor=default;fontColor=default;strokeColor=default;" edge="1" parent="1" source="EVfGeKDwFkoimEBB4Esg-4" target="EVfGeKDwFkoimEBB4Esg-7">
          <mxGeometry relative="1" as="geometry">
            <Array as="points">
              <mxPoint x="535" y="110" />
              <mxPoint x="395" y="110" />
            </Array>
          </mxGeometry>
        </mxCell>
        <mxCell id="EVfGeKDwFkoimEBB4Esg-4" value="Respuesta fisiológica a los estímulos del entorno" style="rounded=1;whiteSpace=wrap;html=1;fontColor=default;strokeColor=default;fillColor=default;labelBackgroundColor=default;" vertex="1" parent="1">
          <mxGeometry x="475" y="20" width="120" height="60" as="geometry" />
        </mxCell>
        <mxCell id="EVfGeKDwFkoimEBB4Esg-11" style="edgeStyle=orthogonalEdgeStyle;rounded=0;orthogonalLoop=1;jettySize=auto;html=1;entryX=0.5;entryY=0;entryDx=0;entryDy=0;fontColor=default;strokeColor=default;labelBackgroundColor=default;startArrow=none;" edge="1" parent="1" source="EVfGeKDwFkoimEBB4Esg-24" target="EVfGeKDwFkoimEBB4Esg-9">
          <mxGeometry relative="1" as="geometry" />
        </mxCell>
        <mxCell id="EVfGeKDwFkoimEBB4Esg-6" value="EVOLUCIÓN" style="rounded=0;whiteSpace=wrap;html=1;fontColor=default;strokeColor=default;fillColor=default;labelBackgroundColor=default;" vertex="1" parent="1">
          <mxGeometry x="646" y="-390" width="80" height="40" as="geometry" />
        </mxCell>
        <mxCell id="EVfGeKDwFkoimEBB4Esg-48" style="edgeStyle=orthogonalEdgeStyle;rounded=0;orthogonalLoop=1;jettySize=auto;html=1;entryX=1;entryY=0.5;entryDx=0;entryDy=0;labelBackgroundColor=default;fontSize=16;fontColor=default;strokeColor=default;" edge="1" parent="1" source="EVfGeKDwFkoimEBB4Esg-7" target="EVfGeKDwFkoimEBB4Esg-47">
          <mxGeometry relative="1" as="geometry" />
        </mxCell>
        <mxCell id="EVfGeKDwFkoimEBB4Esg-50" style="edgeStyle=orthogonalEdgeStyle;rounded=0;orthogonalLoop=1;jettySize=auto;html=1;entryX=0.5;entryY=0;entryDx=0;entryDy=0;labelBackgroundColor=default;fontSize=16;fontColor=default;strokeColor=default;" edge="1" parent="1" source="EVfGeKDwFkoimEBB4Esg-7" target="EVfGeKDwFkoimEBB4Esg-49">
          <mxGeometry relative="1" as="geometry">
            <Array as="points">
              <mxPoint x="395" y="230" />
              <mxPoint x="275" y="230" />
            </Array>
          </mxGeometry>
        </mxCell>
        <mxCell id="EVfGeKDwFkoimEBB4Esg-61" style="edgeStyle=orthogonalEdgeStyle;rounded=0;orthogonalLoop=1;jettySize=auto;html=1;labelBackgroundColor=default;fontSize=12;fontColor=default;strokeColor=default;" edge="1" parent="1" source="EVfGeKDwFkoimEBB4Esg-7" target="EVfGeKDwFkoimEBB4Esg-62">
          <mxGeometry relative="1" as="geometry">
            <mxPoint x="690" y="320" as="targetPoint" />
            <Array as="points">
              <mxPoint x="395" y="270" />
              <mxPoint x="686" y="270" />
            </Array>
          </mxGeometry>
        </mxCell>
        <mxCell id="EVfGeKDwFkoimEBB4Esg-7" value="INTELIGENCIO EMOCIONAL" style="rounded=0;whiteSpace=wrap;html=1;fontColor=default;strokeColor=default;fillColor=default;" vertex="1" parent="1">
          <mxGeometry x="335" y="150" width="120" height="60" as="geometry" />
        </mxCell>
        <mxCell id="EVfGeKDwFkoimEBB4Esg-38" style="edgeStyle=orthogonalEdgeStyle;rounded=0;orthogonalLoop=1;jettySize=auto;html=1;labelBackgroundColor=default;fontColor=default;strokeColor=default;" edge="1" parent="1" source="EVfGeKDwFkoimEBB4Esg-8" target="EVfGeKDwFkoimEBB4Esg-36">
          <mxGeometry relative="1" as="geometry" />
        </mxCell>
        <mxCell id="EVfGeKDwFkoimEBB4Esg-8" value="AGILIDAD EMOCIONAL" style="rounded=0;whiteSpace=wrap;html=1;fontColor=default;strokeColor=default;fillColor=default;labelBackgroundColor=default;" vertex="1" parent="1">
          <mxGeometry x="480" y="150" width="110" height="60" as="geometry" />
        </mxCell>
        <mxCell id="EVfGeKDwFkoimEBB4Esg-13" style="edgeStyle=orthogonalEdgeStyle;rounded=0;orthogonalLoop=1;jettySize=auto;html=1;entryX=0.5;entryY=0;entryDx=0;entryDy=0;fontColor=default;strokeColor=default;labelBackgroundColor=default;" edge="1" parent="1" source="EVfGeKDwFkoimEBB4Esg-9" target="EVfGeKDwFkoimEBB4Esg-12">
          <mxGeometry relative="1" as="geometry" />
        </mxCell>
        <mxCell id="EVfGeKDwFkoimEBB4Esg-9" value="&lt;span style=&quot;font-family: arial, sans-serif; font-size: 14px; text-align: left;&quot;&gt;Teoría de Paul MacLean&lt;/span&gt;" style="rounded=1;whiteSpace=wrap;html=1;fontColor=default;strokeColor=default;fillColor=default;labelBackgroundColor=default;" vertex="1" parent="1">
          <mxGeometry x="706" y="-280" width="100" height="40" as="geometry" />
        </mxCell>
        <mxCell id="EVfGeKDwFkoimEBB4Esg-19" style="edgeStyle=orthogonalEdgeStyle;rounded=0;orthogonalLoop=1;jettySize=auto;html=1;entryX=0.5;entryY=0;entryDx=0;entryDy=0;labelBackgroundColor=default;fontColor=default;strokeColor=default;" edge="1" parent="1" source="EVfGeKDwFkoimEBB4Esg-12" target="EVfGeKDwFkoimEBB4Esg-16">
          <mxGeometry relative="1" as="geometry">
            <Array as="points">
              <mxPoint x="756" y="-150" />
              <mxPoint x="628" y="-150" />
            </Array>
          </mxGeometry>
        </mxCell>
        <mxCell id="EVfGeKDwFkoimEBB4Esg-20" style="edgeStyle=orthogonalEdgeStyle;rounded=0;orthogonalLoop=1;jettySize=auto;html=1;entryX=0.5;entryY=0;entryDx=0;entryDy=0;labelBackgroundColor=default;fontColor=default;strokeColor=default;" edge="1" parent="1" source="EVfGeKDwFkoimEBB4Esg-12" target="EVfGeKDwFkoimEBB4Esg-15">
          <mxGeometry relative="1" as="geometry" />
        </mxCell>
        <mxCell id="EVfGeKDwFkoimEBB4Esg-21" style="edgeStyle=orthogonalEdgeStyle;rounded=0;orthogonalLoop=1;jettySize=auto;html=1;entryX=0.5;entryY=0;entryDx=0;entryDy=0;labelBackgroundColor=default;fontColor=default;strokeColor=default;" edge="1" parent="1" source="EVfGeKDwFkoimEBB4Esg-12" target="EVfGeKDwFkoimEBB4Esg-14">
          <mxGeometry relative="1" as="geometry">
            <Array as="points">
              <mxPoint x="756" y="-150" />
              <mxPoint x="881" y="-150" />
            </Array>
          </mxGeometry>
        </mxCell>
        <mxCell id="EVfGeKDwFkoimEBB4Esg-31" style="edgeStyle=orthogonalEdgeStyle;rounded=0;orthogonalLoop=1;jettySize=auto;html=1;labelBackgroundColor=default;fontColor=default;strokeColor=default;" edge="1" parent="1" source="EVfGeKDwFkoimEBB4Esg-12" target="EVfGeKDwFkoimEBB4Esg-28">
          <mxGeometry relative="1" as="geometry" />
        </mxCell>
        <mxCell id="EVfGeKDwFkoimEBB4Esg-12" value="&lt;span style=&quot;font-family: arial, sans-serif; font-size: 14px; text-align: left;&quot;&gt;Cerebro triúnico&lt;/span&gt;" style="rounded=1;whiteSpace=wrap;html=1;fontColor=default;strokeColor=default;fillColor=default;labelBackgroundColor=default;" vertex="1" parent="1">
          <mxGeometry x="701" y="-210" width="110" height="40" as="geometry" />
        </mxCell>
        <mxCell id="EVfGeKDwFkoimEBB4Esg-14" value="&lt;span style=&quot;font-family: arial, sans-serif; font-size: 14px; text-align: left;&quot;&gt;&amp;nbsp;Sistema límbico&amp;nbsp;&lt;/span&gt;" style="rounded=1;whiteSpace=wrap;html=1;fontColor=default;strokeColor=default;fillColor=default;labelBackgroundColor=default;" vertex="1" parent="1">
          <mxGeometry x="826" y="-100" width="110" height="40" as="geometry" />
        </mxCell>
        <mxCell id="EVfGeKDwFkoimEBB4Esg-15" value="&lt;span style=&quot;font-family: arial, sans-serif; font-size: 14px; text-align: left;&quot;&gt;Reptiliano&lt;/span&gt;" style="rounded=1;whiteSpace=wrap;html=1;fontColor=default;strokeColor=default;fillColor=default;labelBackgroundColor=default;" vertex="1" parent="1">
          <mxGeometry x="706" y="-100" width="100" height="40" as="geometry" />
        </mxCell>
        <mxCell id="EVfGeKDwFkoimEBB4Esg-16" value="&lt;span style=&quot;font-family: arial, sans-serif; font-size: 14px; text-align: left;&quot;&gt;Neocorteza&lt;/span&gt;" style="rounded=1;whiteSpace=wrap;html=1;fontColor=default;strokeColor=default;fillColor=default;labelBackgroundColor=default;" vertex="1" parent="1">
          <mxGeometry x="580" y="-100" width="96" height="40" as="geometry" />
        </mxCell>
        <mxCell id="EVfGeKDwFkoimEBB4Esg-23" value="Segun la" style="text;html=1;strokeColor=none;fillColor=none;align=center;verticalAlign=middle;whiteSpace=wrap;rounded=0;labelBackgroundColor=default;fontColor=default;" vertex="1" parent="1">
          <mxGeometry x="650" y="-410" width="76" height="10" as="geometry" />
        </mxCell>
        <mxCell id="EVfGeKDwFkoimEBB4Esg-24" value="y la&amp;nbsp;" style="text;html=1;strokeColor=none;fillColor=none;align=center;verticalAlign=middle;whiteSpace=wrap;rounded=0;labelBackgroundColor=default;fontColor=default;" vertex="1" parent="1">
          <mxGeometry x="706" y="-320" width="40" as="geometry" />
        </mxCell>
        <mxCell id="EVfGeKDwFkoimEBB4Esg-25" value="" style="edgeStyle=orthogonalEdgeStyle;rounded=0;orthogonalLoop=1;jettySize=auto;html=1;entryX=0.5;entryY=0;entryDx=0;entryDy=0;fontColor=default;strokeColor=default;labelBackgroundColor=default;endArrow=none;" edge="1" parent="1" source="EVfGeKDwFkoimEBB4Esg-6" target="EVfGeKDwFkoimEBB4Esg-24">
          <mxGeometry relative="1" as="geometry">
            <mxPoint x="686" y="-350" as="sourcePoint" />
            <mxPoint x="756" y="-280" as="targetPoint" />
          </mxGeometry>
        </mxCell>
        <mxCell id="EVfGeKDwFkoimEBB4Esg-33" style="edgeStyle=orthogonalEdgeStyle;rounded=0;orthogonalLoop=1;jettySize=auto;html=1;entryX=0.5;entryY=0;entryDx=0;entryDy=0;labelBackgroundColor=default;fontColor=default;strokeColor=default;" edge="1" parent="1" source="EVfGeKDwFkoimEBB4Esg-28" target="EVfGeKDwFkoimEBB4Esg-1">
          <mxGeometry relative="1" as="geometry" />
        </mxCell>
        <mxCell id="EVfGeKDwFkoimEBB4Esg-28" value="&lt;div&gt;“Creemos que las emociones y la mente son&lt;/div&gt;&lt;div&gt;antagónicas cuando en realidad el único problema&lt;/div&gt;&lt;div&gt;entre ellas se produce cuando se desconectan de&lt;/div&gt;&lt;div&gt;su condición de socias y combaten entre sí.”&amp;nbsp;&lt;/div&gt;&lt;div&gt;N.Levy&lt;/div&gt;" style="text;html=1;strokeColor=none;fillColor=none;align=center;verticalAlign=middle;whiteSpace=wrap;rounded=0;labelBackgroundColor=default;fontColor=default;" vertex="1" parent="1">
          <mxGeometry x="320" y="-245" width="290" height="110" as="geometry" />
        </mxCell>
        <mxCell id="EVfGeKDwFkoimEBB4Esg-36" value="&lt;p class=&quot;MsoNormal&quot;&gt;&lt;span style=&quot;font-size: 12.0pt ; line-height: 115%&quot;&gt;Capacidad de tratar nuestras emociones con curiosidad, compasión y especialmente coraje, coraje de en consecuencia de la observación de esas emociones tomar medidas alineadas con nuestros valores.&lt;/span&gt;&lt;/p&gt;" style="text;html=1;strokeColor=default;fillColor=none;align=center;verticalAlign=middle;whiteSpace=wrap;rounded=0;labelBackgroundColor=default;fontColor=default;" vertex="1" parent="1">
          <mxGeometry x="646" y="20" width="370" height="120" as="geometry" />
        </mxCell>
        <mxCell id="EVfGeKDwFkoimEBB4Esg-44" value="&amp;amp;" style="text;html=1;strokeColor=none;fillColor=none;align=center;verticalAlign=middle;whiteSpace=wrap;rounded=0;labelBackgroundColor=default;fontColor=default;" vertex="1" parent="1">
          <mxGeometry x="435" y="90" width="60" height="30" as="geometry" />
        </mxCell>
        <mxCell id="EVfGeKDwFkoimEBB4Esg-47" value="&lt;div style=&quot;font-size: 16px&quot;&gt;&lt;font style=&quot;font-size: 16px&quot;&gt;&quot;Capacidad de reconocer nuestros propios sentimientos y los ajenos, de&amp;nbsp;&lt;/font&gt;motivarnos y de manejar bien las emociones, en nosotros mismos y en nuestras relaciones”&amp;nbsp;&lt;/div&gt;&lt;div style=&quot;font-size: 16px&quot;&gt;D. Goleman&lt;/div&gt;" style="text;html=1;strokeColor=default;fillColor=none;align=center;verticalAlign=middle;whiteSpace=wrap;rounded=0;labelBackgroundColor=default;fontColor=default;" vertex="1" parent="1">
          <mxGeometry x="-50" y="110.93" width="290" height="138.13" as="geometry" />
        </mxCell>
        <mxCell id="EVfGeKDwFkoimEBB4Esg-51" style="edgeStyle=orthogonalEdgeStyle;rounded=0;orthogonalLoop=1;jettySize=auto;html=1;labelBackgroundColor=default;fontSize=16;fontColor=default;strokeColor=default;" edge="1" parent="1" source="EVfGeKDwFkoimEBB4Esg-49">
          <mxGeometry relative="1" as="geometry">
            <mxPoint x="490" y="380" as="targetPoint" />
            <Array as="points">
              <mxPoint x="275" y="320" />
              <mxPoint x="490" y="320" />
              <mxPoint x="490" y="380" />
            </Array>
          </mxGeometry>
        </mxCell>
        <mxCell id="EVfGeKDwFkoimEBB4Esg-52" style="edgeStyle=orthogonalEdgeStyle;rounded=0;orthogonalLoop=1;jettySize=auto;html=1;labelBackgroundColor=default;fontSize=16;fontColor=default;strokeColor=default;" edge="1" parent="1" source="EVfGeKDwFkoimEBB4Esg-49">
          <mxGeometry relative="1" as="geometry">
            <mxPoint x="390" y="380" as="targetPoint" />
            <Array as="points">
              <mxPoint x="275" y="320" />
              <mxPoint x="390" y="320" />
            </Array>
          </mxGeometry>
        </mxCell>
        <mxCell id="EVfGeKDwFkoimEBB4Esg-53" style="edgeStyle=orthogonalEdgeStyle;rounded=0;orthogonalLoop=1;jettySize=auto;html=1;labelBackgroundColor=default;fontSize=16;fontColor=default;strokeColor=default;" edge="1" parent="1" source="EVfGeKDwFkoimEBB4Esg-49">
          <mxGeometry relative="1" as="geometry">
            <mxPoint x="275" y="380" as="targetPoint" />
          </mxGeometry>
        </mxCell>
        <mxCell id="EVfGeKDwFkoimEBB4Esg-54" style="edgeStyle=orthogonalEdgeStyle;rounded=0;orthogonalLoop=1;jettySize=auto;html=1;labelBackgroundColor=default;fontSize=16;fontColor=default;strokeColor=default;" edge="1" parent="1" source="EVfGeKDwFkoimEBB4Esg-49">
          <mxGeometry relative="1" as="geometry">
            <mxPoint x="90" y="380" as="targetPoint" />
            <Array as="points">
              <mxPoint x="275" y="320" />
              <mxPoint x="90" y="320" />
              <mxPoint x="90" y="380" />
            </Array>
          </mxGeometry>
        </mxCell>
        <mxCell id="EVfGeKDwFkoimEBB4Esg-55" style="edgeStyle=orthogonalEdgeStyle;rounded=0;orthogonalLoop=1;jettySize=auto;html=1;labelBackgroundColor=default;fontSize=16;fontColor=default;strokeColor=default;" edge="1" parent="1" source="EVfGeKDwFkoimEBB4Esg-49">
          <mxGeometry relative="1" as="geometry">
            <mxPoint x="190" y="380" as="targetPoint" />
            <Array as="points">
              <mxPoint x="275" y="320" />
              <mxPoint x="190" y="320" />
            </Array>
          </mxGeometry>
        </mxCell>
        <mxCell id="EVfGeKDwFkoimEBB4Esg-49" value="Claves" style="rounded=1;whiteSpace=wrap;html=1;labelBackgroundColor=default;fontSize=16;fontColor=default;strokeColor=default;fillColor=default;" vertex="1" parent="1">
          <mxGeometry x="237.5" y="260" width="75" height="30" as="geometry" />
        </mxCell>
        <mxCell id="EVfGeKDwFkoimEBB4Esg-56" value="&lt;font style=&quot;font-size: 12px&quot;&gt;AUTO&amp;nbsp; CONCIENCIA&lt;/font&gt;" style="rounded=1;whiteSpace=wrap;html=1;labelBackgroundColor=default;fontSize=16;fontColor=default;strokeColor=default;fillColor=default;" vertex="1" parent="1">
          <mxGeometry x="30" y="390" width="90" height="40" as="geometry" />
        </mxCell>
        <mxCell id="EVfGeKDwFkoimEBB4Esg-57" value="&lt;font style=&quot;font-size: 12px&quot;&gt;AUTO REGULACION&lt;/font&gt;" style="rounded=1;whiteSpace=wrap;html=1;labelBackgroundColor=default;fontSize=16;fontColor=default;strokeColor=default;fillColor=default;" vertex="1" parent="1">
          <mxGeometry x="130" y="390" width="90" height="40" as="geometry" />
        </mxCell>
        <mxCell id="EVfGeKDwFkoimEBB4Esg-58" value="&lt;font style=&quot;font-size: 12px&quot;&gt;AUTO MOTIVACIÓN&lt;/font&gt;" style="rounded=1;whiteSpace=wrap;html=1;labelBackgroundColor=default;fontSize=16;fontColor=default;strokeColor=default;fillColor=default;" vertex="1" parent="1">
          <mxGeometry x="229" y="390" width="86" height="40" as="geometry" />
        </mxCell>
        <mxCell id="EVfGeKDwFkoimEBB4Esg-59" value="&lt;font style=&quot;font-size: 12px&quot;&gt;EMPATÍA&lt;/font&gt;" style="rounded=1;whiteSpace=wrap;html=1;labelBackgroundColor=default;fontSize=16;fontColor=default;strokeColor=default;fillColor=default;" vertex="1" parent="1">
          <mxGeometry x="350" y="390" width="70" height="40" as="geometry" />
        </mxCell>
        <mxCell id="EVfGeKDwFkoimEBB4Esg-60" value="&lt;font style=&quot;font-size: 12px&quot;&gt;HABILIDAD SOCIAL&lt;/font&gt;" style="rounded=1;whiteSpace=wrap;html=1;labelBackgroundColor=default;fontSize=16;fontColor=default;strokeColor=default;fillColor=default;" vertex="1" parent="1">
          <mxGeometry x="440" y="390" width="100" height="40" as="geometry" />
        </mxCell>
        <mxCell id="EVfGeKDwFkoimEBB4Esg-62" value="Modelo RENER" style="rounded=1;whiteSpace=wrap;html=1;labelBackgroundColor=default;fontSize=12;fontColor=default;strokeColor=default;fillColor=default;" vertex="1" parent="1">
          <mxGeometry x="626" y="330" width="120" height="60" as="geometry" />
        </mxCell>
        <mxCell id="EVfGeKDwFkoimEBB4Esg-76" style="edgeStyle=orthogonalEdgeStyle;rounded=0;orthogonalLoop=1;jettySize=auto;html=1;labelBackgroundColor=default;fontSize=12;fontColor=default;endArrow=none;endFill=0;strokeColor=default;" edge="1" parent="1" source="EVfGeKDwFkoimEBB4Esg-63">
          <mxGeometry relative="1" as="geometry">
            <mxPoint x="600" y="615" as="targetPoint" />
          </mxGeometry>
        </mxCell>
        <mxCell id="EVfGeKDwFkoimEBB4Esg-63" value="&lt;div&gt;Expresar&lt;/div&gt;" style="ellipse;whiteSpace=wrap;html=1;aspect=fixed;labelBackgroundColor=default;fontSize=12;fontColor=default;strokeColor=default;fillColor=default;" vertex="1" parent="1">
          <mxGeometry x="646" y="590" width="50" height="50" as="geometry" />
        </mxCell>
        <mxCell id="EVfGeKDwFkoimEBB4Esg-64" value="&lt;div&gt;Regular&lt;/div&gt;" style="ellipse;whiteSpace=wrap;html=1;aspect=fixed;labelBackgroundColor=default;fontSize=12;fontColor=default;strokeColor=default;fillColor=default;" vertex="1" parent="1">
          <mxGeometry x="646" y="650" width="50" height="50" as="geometry" />
        </mxCell>
        <mxCell id="EVfGeKDwFkoimEBB4Esg-71" style="edgeStyle=orthogonalEdgeStyle;rounded=0;orthogonalLoop=1;jettySize=auto;html=1;labelBackgroundColor=default;fontSize=12;fontColor=default;strokeColor=default;endArrow=none;endFill=0;" edge="1" parent="1" source="EVfGeKDwFkoimEBB4Esg-65">
          <mxGeometry relative="1" as="geometry">
            <mxPoint x="600" y="445" as="targetPoint" />
          </mxGeometry>
        </mxCell>
        <mxCell id="EVfGeKDwFkoimEBB4Esg-65" value="&lt;div&gt;Reconocer&lt;/div&gt;" style="ellipse;whiteSpace=wrap;html=1;aspect=fixed;labelBackgroundColor=default;fontSize=12;fontColor=default;strokeColor=default;fillColor=default;" vertex="1" parent="1">
          <mxGeometry x="646" y="420" width="50" height="50" as="geometry" />
        </mxCell>
        <mxCell id="EVfGeKDwFkoimEBB4Esg-73" style="edgeStyle=orthogonalEdgeStyle;rounded=0;orthogonalLoop=1;jettySize=auto;html=1;labelBackgroundColor=default;fontSize=12;fontColor=default;endArrow=none;endFill=0;strokeColor=default;" edge="1" parent="1" source="EVfGeKDwFkoimEBB4Esg-66">
          <mxGeometry relative="1" as="geometry">
            <mxPoint x="600" y="560" as="targetPoint" />
          </mxGeometry>
        </mxCell>
        <mxCell id="EVfGeKDwFkoimEBB4Esg-66" value="&lt;div&gt;Nombrar&lt;/div&gt;" style="ellipse;whiteSpace=wrap;html=1;aspect=fixed;labelBackgroundColor=default;fontSize=12;fontColor=default;strokeColor=default;fillColor=default;" vertex="1" parent="1">
          <mxGeometry x="646" y="535" width="50" height="50" as="geometry" />
        </mxCell>
        <mxCell id="EVfGeKDwFkoimEBB4Esg-72" style="edgeStyle=orthogonalEdgeStyle;rounded=0;orthogonalLoop=1;jettySize=auto;html=1;labelBackgroundColor=default;fontSize=12;fontColor=default;endArrow=none;endFill=0;strokeColor=default;" edge="1" parent="1" source="EVfGeKDwFkoimEBB4Esg-67">
          <mxGeometry relative="1" as="geometry">
            <mxPoint x="600" y="505" as="targetPoint" />
          </mxGeometry>
        </mxCell>
        <mxCell id="EVfGeKDwFkoimEBB4Esg-67" value="&lt;div&gt;Entender&lt;/div&gt;" style="ellipse;whiteSpace=wrap;html=1;aspect=fixed;labelBackgroundColor=default;fontSize=12;fontColor=default;strokeColor=default;fillColor=default;" vertex="1" parent="1">
          <mxGeometry x="646" y="480" width="50" height="50" as="geometry" />
        </mxCell>
        <mxCell id="EVfGeKDwFkoimEBB4Esg-69" value="" style="endArrow=none;html=1;rounded=0;labelBackgroundColor=default;fontSize=12;fontColor=default;strokeColor=default;startArrow=none;" edge="1" parent="1" source="EVfGeKDwFkoimEBB4Esg-86">
          <mxGeometry width="50" height="50" relative="1" as="geometry">
            <mxPoint x="600" y="670" as="sourcePoint" />
            <mxPoint x="600" y="360" as="targetPoint" />
          </mxGeometry>
        </mxCell>
        <mxCell id="EVfGeKDwFkoimEBB4Esg-70" value="" style="endArrow=none;html=1;rounded=0;labelBackgroundColor=default;fontSize=12;fontColor=default;strokeColor=default;" edge="1" parent="1">
          <mxGeometry width="50" height="50" relative="1" as="geometry">
            <mxPoint x="620" y="360" as="sourcePoint" />
            <mxPoint x="600" y="360" as="targetPoint" />
          </mxGeometry>
        </mxCell>
        <mxCell id="EVfGeKDwFkoimEBB4Esg-77" value="" style="ellipse;whiteSpace=wrap;html=1;aspect=fixed;labelBackgroundColor=default;fontSize=12;fontColor=default;strokeColor=default;fillColor=default;gradientColor=#ffffff;" vertex="1" parent="1">
          <mxGeometry x="595" y="670" width="10" height="10" as="geometry" />
        </mxCell>
        <mxCell id="EVfGeKDwFkoimEBB4Esg-79" value="" style="edgeStyle=orthogonalEdgeStyle;rounded=0;orthogonalLoop=1;jettySize=auto;html=1;labelBackgroundColor=default;fontSize=12;fontColor=default;endArrow=none;endFill=0;strokeColor=default;" edge="1" parent="1" source="EVfGeKDwFkoimEBB4Esg-64" target="EVfGeKDwFkoimEBB4Esg-77">
          <mxGeometry relative="1" as="geometry">
            <mxPoint x="600" y="675" as="targetPoint" />
            <mxPoint x="646" y="675" as="sourcePoint" />
          </mxGeometry>
        </mxCell>
        <mxCell id="EVfGeKDwFkoimEBB4Esg-80" value="" style="ellipse;whiteSpace=wrap;html=1;aspect=fixed;labelBackgroundColor=default;fontSize=12;fontColor=default;strokeColor=default;fillColor=default;gradientColor=#ffffff;" vertex="1" parent="1">
          <mxGeometry x="595" y="610" width="10" height="10" as="geometry" />
        </mxCell>
        <mxCell id="EVfGeKDwFkoimEBB4Esg-81" value="" style="endArrow=none;html=1;rounded=0;labelBackgroundColor=default;fontSize=12;fontColor=default;strokeColor=default;" edge="1" parent="1" target="EVfGeKDwFkoimEBB4Esg-80">
          <mxGeometry width="50" height="50" relative="1" as="geometry">
            <mxPoint x="600" y="670" as="sourcePoint" />
            <mxPoint x="600" y="360" as="targetPoint" />
          </mxGeometry>
        </mxCell>
        <mxCell id="EVfGeKDwFkoimEBB4Esg-82" value="" style="ellipse;whiteSpace=wrap;html=1;aspect=fixed;labelBackgroundColor=default;fontSize=12;fontColor=default;strokeColor=default;fillColor=default;gradientColor=#ffffff;" vertex="1" parent="1">
          <mxGeometry x="595" y="555" width="10" height="10" as="geometry" />
        </mxCell>
        <mxCell id="EVfGeKDwFkoimEBB4Esg-83" value="" style="endArrow=none;html=1;rounded=0;labelBackgroundColor=default;fontSize=12;fontColor=default;strokeColor=default;startArrow=none;" edge="1" parent="1" source="EVfGeKDwFkoimEBB4Esg-80" target="EVfGeKDwFkoimEBB4Esg-82">
          <mxGeometry width="50" height="50" relative="1" as="geometry">
            <mxPoint x="600" y="610" as="sourcePoint" />
            <mxPoint x="600" y="360" as="targetPoint" />
          </mxGeometry>
        </mxCell>
        <mxCell id="EVfGeKDwFkoimEBB4Esg-84" value="" style="ellipse;whiteSpace=wrap;html=1;aspect=fixed;labelBackgroundColor=default;fontSize=12;fontColor=default;strokeColor=default;fillColor=default;gradientColor=#ffffff;" vertex="1" parent="1">
          <mxGeometry x="595" y="500" width="10" height="10" as="geometry" />
        </mxCell>
        <mxCell id="EVfGeKDwFkoimEBB4Esg-85" value="" style="endArrow=none;html=1;rounded=0;labelBackgroundColor=default;fontSize=12;fontColor=default;strokeColor=default;startArrow=none;" edge="1" parent="1" source="EVfGeKDwFkoimEBB4Esg-82" target="EVfGeKDwFkoimEBB4Esg-84">
          <mxGeometry width="50" height="50" relative="1" as="geometry">
            <mxPoint x="600" y="555" as="sourcePoint" />
            <mxPoint x="600" y="360" as="targetPoint" />
          </mxGeometry>
        </mxCell>
        <mxCell id="EVfGeKDwFkoimEBB4Esg-86" value="" style="ellipse;whiteSpace=wrap;html=1;aspect=fixed;labelBackgroundColor=default;fontSize=12;fontColor=default;strokeColor=default;fillColor=default;gradientColor=#ffffff;" vertex="1" parent="1">
          <mxGeometry x="595" y="440" width="10" height="10" as="geometry" />
        </mxCell>
        <mxCell id="EVfGeKDwFkoimEBB4Esg-87" value="" style="endArrow=none;html=1;rounded=0;labelBackgroundColor=default;fontSize=12;fontColor=default;strokeColor=default;startArrow=none;" edge="1" parent="1" source="EVfGeKDwFkoimEBB4Esg-84" target="EVfGeKDwFkoimEBB4Esg-86">
          <mxGeometry width="50" height="50" relative="1" as="geometry">
            <mxPoint x="600" y="500" as="sourcePoint" />
            <mxPoint x="600" y="360" as="targetPoint" />
          </mxGeometry>
        </mxCell>
        <mxCell id="EVfGeKDwFkoimEBB4Esg-89" style="edgeStyle=orthogonalEdgeStyle;rounded=0;orthogonalLoop=1;jettySize=auto;html=1;labelBackgroundColor=default;fontSize=15;fontColor=default;endArrow=none;endFill=0;strokeColor=default;startArrow=classic;startFill=1;" edge="1" parent="1" source="EVfGeKDwFkoimEBB4Esg-88">
          <mxGeometry relative="1" as="geometry">
            <mxPoint x="820" y="180" as="targetPoint" />
            <Array as="points">
              <mxPoint x="1130" y="180" />
            </Array>
          </mxGeometry>
        </mxCell>
        <mxCell id="EVfGeKDwFkoimEBB4Esg-88" value="&lt;div style=&quot;text-align: left ; font-size: 15px&quot;&gt;&lt;ul&gt;&lt;li&gt;&lt;span&gt;&amp;nbsp; &amp;nbsp;Aceptar sin juicio todas las&amp;nbsp;&lt;/span&gt;&lt;span&gt;emociones.&lt;/span&gt;&lt;/li&gt;&lt;li&gt;&amp;nbsp; &amp;nbsp;Estar receptivos a lo que nos están mostrando o avisando&lt;/li&gt;&lt;li&gt;&amp;nbsp; &amp;nbsp;Ampliar la capacidad creativa y generativa.&lt;/li&gt;&lt;li&gt;&amp;nbsp; &amp;nbsp;Alejarse del mandato emocional e integrar todo el abanico.&lt;/li&gt;&lt;/ul&gt;&lt;/div&gt;" style="rounded=0;whiteSpace=wrap;html=1;labelBackgroundColor=default;fontSize=12;fontColor=default;strokeColor=default;fillColor=default;" vertex="1" parent="1">
          <mxGeometry x="890" y="220" width="460" height="140" as="geometry" />
        </mxCell>
        <mxCell id="EVfGeKDwFkoimEBB4Esg-98" style="edgeStyle=orthogonalEdgeStyle;rounded=0;orthogonalLoop=1;jettySize=auto;html=1;labelBackgroundColor=default;fontSize=16;fontColor=default;startArrow=classic;startFill=1;endArrow=none;endFill=0;strokeColor=default;exitX=0.5;exitY=0;exitDx=0;exitDy=0;entryX=0.5;entryY=1;entryDx=0;entryDy=0;" edge="1" parent="1" source="EVfGeKDwFkoimEBB4Esg-94" target="EVfGeKDwFkoimEBB4Esg-90">
          <mxGeometry relative="1" as="geometry">
            <mxPoint x="950" y="460" as="targetPoint" />
          </mxGeometry>
        </mxCell>
        <mxCell id="EVfGeKDwFkoimEBB4Esg-90" value="&lt;h1 style=&quot;box-sizing: border-box ; font-family: &amp;quot;poppins&amp;quot; , sans-serif ; margin: 0px 0px 20px ; line-height: 33px&quot;&gt;&lt;font style=&quot;font-size: 16px ; font-weight: normal&quot;&gt;Test de Kilman&lt;/font&gt;&lt;/h1&gt;" style="rounded=0;whiteSpace=wrap;html=1;labelBackgroundColor=default;fontSize=15;fontColor=default;strokeColor=default;fillColor=default;gradientColor=none;align=center;" vertex="1" parent="1">
          <mxGeometry x="865" y="380" width="120" height="60" as="geometry" />
        </mxCell>
        <mxCell id="EVfGeKDwFkoimEBB4Esg-91" value="" style="ellipse;whiteSpace=wrap;html=1;rounded=0;labelBackgroundColor=default;fontSize=16;fontColor=default;strokeColor=default;fillColor=default;align=center;gradientColor=#ffffff;" vertex="1" parent="1">
          <mxGeometry x="870" y="530" width="110" height="50" as="geometry" />
        </mxCell>
        <mxCell id="EVfGeKDwFkoimEBB4Esg-92" value="Complaciente" style="ellipse;whiteSpace=wrap;html=1;rounded=0;labelBackgroundColor=default;fontSize=16;fontColor=default;strokeColor=default;fillColor=default;align=center;gradientColor=#ffffff;" vertex="1" parent="1">
          <mxGeometry x="870" y="720" width="110" height="50" as="geometry" />
        </mxCell>
        <mxCell id="EVfGeKDwFkoimEBB4Esg-93" value="Evasivo" style="ellipse;whiteSpace=wrap;html=1;rounded=0;labelBackgroundColor=default;fontSize=16;fontColor=default;strokeColor=default;fillColor=default;align=center;gradientColor=#ffffff;" vertex="1" parent="1">
          <mxGeometry x="870" y="650" width="100" height="50" as="geometry" />
        </mxCell>
        <mxCell id="EVfGeKDwFkoimEBB4Esg-94" value="Competidor" style="ellipse;whiteSpace=wrap;html=1;rounded=0;labelBackgroundColor=default;fontSize=16;fontColor=default;strokeColor=default;fillColor=default;align=center;gradientColor=#FFFFFF;" vertex="1" parent="1">
          <mxGeometry x="870" y="480" width="110" height="40" as="geometry" />
        </mxCell>
        <mxCell id="EVfGeKDwFkoimEBB4Esg-95" value="" style="ellipse;whiteSpace=wrap;html=1;rounded=0;labelBackgroundColor=default;fontSize=16;fontColor=default;strokeColor=default;fillColor=default;align=center;gradientColor=#ffffff;" vertex="1" parent="1">
          <mxGeometry x="870" y="585" width="110" height="55" as="geometry" />
        </mxCell>
        <mxCell id="EVfGeKDwFkoimEBB4Esg-99" value="" style="endArrow=none;html=1;rounded=0;labelBackgroundColor=default;fontSize=16;fontColor=default;strokeColor=default;exitX=0.5;exitY=1;exitDx=0;exitDy=0;entryX=0.5;entryY=0;entryDx=0;entryDy=0;" edge="1" parent="1" source="EVfGeKDwFkoimEBB4Esg-92" target="EVfGeKDwFkoimEBB4Esg-94">
          <mxGeometry width="50" height="50" relative="1" as="geometry">
            <mxPoint x="650" y="630" as="sourcePoint" />
            <mxPoint x="700" y="580" as="targetPoint" />
          </mxGeometry>
        </mxCell>
        <mxCell id="EVfGeKDwFkoimEBB4Esg-102" value="Colaborador" style="edgeLabel;html=1;align=center;verticalAlign=middle;resizable=0;points=[];fontSize=16;fontColor=default;labelBackgroundColor=default;" vertex="1" connectable="0" parent="EVfGeKDwFkoimEBB4Esg-99">
          <mxGeometry x="0.5103" y="2" relative="1" as="geometry">
            <mxPoint x="1" as="offset" />
          </mxGeometry>
        </mxCell>
        <mxCell id="EVfGeKDwFkoimEBB4Esg-103" value="Consesivo" style="edgeLabel;html=1;align=center;verticalAlign=middle;resizable=0;points=[];fontSize=16;fontColor=default;" vertex="1" connectable="0" parent="EVfGeKDwFkoimEBB4Esg-99">
          <mxGeometry x="0.0828" y="-5" relative="1" as="geometry">
            <mxPoint as="offset" />
          </mxGeometry>
        </mxCell>
      </root>
    </mxGraphModel>
  </diagram>
</mxfile>
